<svg width="103" height="32" viewBox="0 0 103 32" fill="none" xmlns="http://www.w3.org/2000/svg">
<path fill-rule="evenodd" clip-rule="evenodd" d="M16.4644 0.627441H14.2001C10.5195 0.627441 6.858 1.19389 5.78951 6.59379C5.78951 6.59379 5.24223 9.39976 4.84931 11.191L4.8443 11.193C4.61577 11.2405 3.84096 11.6251 3.51019 11.8422L3.00501 14.005H4.25493C3.97828 15.2338 2.12395 24.5524 2.12395 24.5524C1.4564 27.8208 1.14467 28.8275 0 29.6282L1.85934 32C3.27263 31.1892 4.27397 30.0159 5.09388 26.7435L7.65987 14.005H11.4738L12.0912 11.191H8.26428C8.26428 11.191 8.73137 8.82423 9.05713 7.22485C9.38489 5.62649 10.0224 3.85547 12.7447 3.85547H16.4333L16.8142 1.82798C16.9285 1.06363 16.7962 0.70115 16.4644 0.627441Z" fill="#ED0F69"/>
<path fill-rule="evenodd" clip-rule="evenodd" d="M95.2564 17.0346C94.6659 17.0346 94.0378 17.4931 93.8231 18.2819C94.1148 18.4132 94.9616 18.5753 95.4843 18.482C96.4699 18.3086 96.4051 17.0346 95.2564 17.0346ZM95.6707 18.8112C95.0032 18.9487 94.1847 18.7835 93.7573 18.6492C93.6479 19.4585 94.1118 19.8862 94.7722 19.8862C95.2625 19.879 95.774 19.8052 96.0617 19.7252L95.9827 20.1273C95.6879 20.1919 95.2199 20.2873 94.7013 20.2945C93.7421 20.2945 93.1232 19.7395 93.3683 18.4276C93.5992 17.2603 94.4926 16.611 95.3425 16.611C97.0078 16.611 96.9895 18.5414 95.6707 18.8112ZM75.2885 17.0346C74.699 17.0346 74.071 17.4931 73.8562 18.2819C74.1469 18.4132 74.9937 18.5753 75.5174 18.482C76.501 18.3086 76.4382 17.0346 75.2885 17.0346ZM75.7038 18.8112C75.0363 18.9487 74.2158 18.7835 73.7894 18.6492C73.68 19.4585 74.1429 19.8862 74.8053 19.8862C75.2956 19.879 75.8061 19.8052 76.0958 19.7252L76.0148 20.1273C75.72 20.1919 75.253 20.2873 74.7344 20.2945C73.7752 20.2945 73.1553 19.7395 73.4004 18.4276C73.6313 17.2603 74.5258 16.611 75.3756 16.611C77.0409 16.611 77.0226 18.5414 75.7038 18.8112ZM82.0164 11.9551C82.3081 12.0864 83.1549 12.2495 83.6786 12.1562C84.6642 11.9828 84.5994 10.7068 83.4497 10.7068C82.8591 10.7068 82.2332 11.1673 82.0164 11.9551ZM82.8956 13.9687C81.9374 13.9687 81.3175 13.4137 81.5626 12.1008C81.7945 10.9345 82.6859 10.2852 83.5368 10.2852C85.2041 10.2852 85.1828 12.2157 83.865 12.4854C83.1964 12.6208 82.379 12.4567 81.9526 12.3234C81.8411 13.1316 82.3051 13.5594 82.9685 13.5594C83.4568 13.5522 83.9683 13.4794 84.257 13.3994L84.177 13.8004C83.8822 13.8661 83.4132 13.9605 82.8956 13.9687ZM92.324 17.3382C92.0353 17.1259 91.619 17.0315 91.3738 17.0315C90.7458 17.0315 90.0185 17.4983 89.8463 18.403C89.6164 19.6503 90.3791 19.8688 90.8117 19.8688C91.1003 19.8688 91.6392 19.7221 91.9269 19.4092L92.324 17.3382ZM92.7697 15.0406H93.1951L92.2014 20.2185H91.8489L91.8702 19.8534C91.5319 20.0944 91.1723 20.2904 90.7316 20.2904C90.1705 20.2904 89.1261 19.9919 89.429 18.403C89.6589 17.2059 90.5959 16.6079 91.4589 16.6079C91.697 16.6079 92.0505 16.6592 92.404 16.9218L92.7697 15.0406ZM87.9663 19.5108C87.5348 19.7508 87.0881 19.8831 86.8075 19.8831C86.2616 19.8831 85.8777 19.6267 86.0367 18.8615L86.455 16.6889H86.0367L85.6194 18.8615C85.4107 19.9416 85.9354 20.2986 86.7285 20.2986C87.0517 20.2986 87.6432 20.1242 87.9228 19.8534L87.9025 20.2185H88.254L88.9306 16.6889H88.5143L87.9663 19.5108ZM87.9825 15.1862L87.2887 16.1053H87.7141L88.413 15.1862H87.9825ZM84.2945 18.5989C84.0412 18.5117 83.7181 18.4902 83.4659 18.4902C82.7741 18.4902 82.3051 18.7589 82.2271 19.2051C82.146 19.5908 82.2919 19.8688 82.8602 19.8688C83.1914 19.8688 83.7394 19.7508 84.1213 19.5036L84.2945 18.5989ZM84.805 18.1106L84.4029 20.2185H84.0504L84.0716 19.8534C83.7617 20.1098 83.1053 20.2904 82.7812 20.2904C81.8888 20.2904 81.6953 19.839 81.8087 19.2051C81.9465 18.482 82.6171 18.1106 83.553 18.1106C83.7981 18.1106 84.1942 18.1465 84.3674 18.2276L84.3887 18.1106C84.5376 17.2716 84.1871 17.009 83.7394 17.009C83.3281 17.009 82.926 17.09 82.4276 17.2859L82.5006 16.8931C82.9037 16.7248 83.321 16.6007 83.8194 16.6007C84.489 16.6007 85.0359 16.9505 84.805 18.1106ZM79.088 17.5783C79.0657 17.6808 78.9665 18.2347 79.6289 18.4676L79.9662 18.5845C80.499 18.7599 80.9325 18.8984 80.8302 19.3364C80.6945 19.839 80.2113 19.8903 79.6715 19.8903C79.4476 19.8903 79.088 19.8175 78.7699 19.6349L78.6838 20.0801C78.9432 20.2185 79.324 20.2996 79.5914 20.2996C80.3329 20.2996 81.0187 20.2555 81.2476 19.3579C81.4208 18.5917 80.8606 18.4091 80.1759 18.1763L79.8437 18.0604C79.4395 17.9209 79.5063 17.6449 79.5063 17.6296C79.5854 17.2572 79.9308 17.01 80.6135 17.0377C80.7938 17.0377 81.2476 17.1403 81.4573 17.2203L81.5423 16.7905C81.3286 16.7105 80.9325 16.6079 80.7229 16.6079C79.7353 16.572 79.2106 16.9874 79.088 17.5783ZM102.434 12.2731C102.182 12.1849 101.859 12.1633 101.607 12.1633C100.915 12.1633 100.448 12.4321 100.368 12.8773C100.288 13.264 100.433 13.5419 101.001 13.5419C101.334 13.5419 101.881 13.424 102.263 13.1768L102.434 12.2731ZM102.946 11.7838L102.543 13.8917H102.19L102.212 13.5266C101.903 13.782 101.248 13.9646 100.923 13.9646C100.029 13.9646 99.8359 13.5122 99.9493 12.8773C100.087 12.1551 100.756 11.7838 101.695 11.7838C101.938 11.7838 102.336 11.8207 102.508 11.8997L102.529 11.7838C102.68 10.9437 102.327 10.6822 101.881 10.6822C101.469 10.6822 101.067 10.7632 100.57 10.9591L100.642 10.5652C101.044 10.398 101.463 10.2739 101.961 10.2739C102.63 10.2739 103.179 10.6237 102.946 11.7838ZM98.1838 10.2801C97.8617 10.2801 97.2924 10.4637 97.0037 10.6965L97.025 10.3611H96.6583L95.9806 13.8907H96.398L96.9389 11.0678C97.3704 10.8278 97.8181 10.6965 98.1058 10.6965C98.6528 10.6965 99.0275 10.953 98.8695 11.7182L98.4593 13.8907H98.8756L99.2868 11.7182C99.4965 10.6391 98.984 10.2801 98.1838 10.2801ZM95.4914 10.3611H95.066L94.3893 13.8907H94.8148L95.4914 10.3611ZM95.4408 9.47075C95.6413 9.47075 95.7284 9.35484 95.7588 9.21533C95.7862 9.06147 95.7436 8.96095 95.542 8.96095C95.3395 8.96095 95.2534 9.06147 95.224 9.21533C95.1966 9.35484 95.2463 9.47075 95.4408 9.47075ZM92.4648 13.9728C92.8325 13.9728 93.2001 13.9348 93.4807 13.8763L93.5597 13.4537C93.3004 13.5112 92.8902 13.5419 92.5509 13.5419C91.9472 13.5419 91.4204 13.0445 91.5926 12.1254L91.5865 12.1346C91.781 11.2217 92.486 10.7109 93.0918 10.7109C93.4301 10.7109 93.7897 10.7468 94.0713 10.8063L94.1503 10.3837C93.892 10.3313 93.5456 10.2811 93.1779 10.2811C92.3787 10.2811 91.3992 10.9376 91.1682 12.1254C90.9383 13.3224 91.6585 13.9728 92.4648 13.9728ZM90.4987 9.47075C90.7002 9.47075 90.7863 9.35484 90.8157 9.21533C90.8441 9.06147 90.8005 8.96095 90.5989 8.96095C90.3974 8.96095 90.3113 9.06147 90.2829 9.21533C90.2535 9.35484 90.3042 9.47075 90.4987 9.47075ZM90.5493 10.3611H90.1239L89.4472 13.8907H89.8717L90.5493 10.3611ZM88.4009 11.0104C88.1132 10.7991 87.6949 10.7037 87.4508 10.7037C86.8238 10.7037 86.0975 11.1704 85.9253 12.0761C85.6943 13.3224 86.4571 13.5419 86.8886 13.5419C87.1783 13.5419 87.7172 13.3963 88.0058 13.0814L88.4009 11.0104ZM88.8486 8.71272H89.273L88.2793 13.8917H87.9268L87.9481 13.5266C87.6098 13.7676 87.2492 13.9646 86.8106 13.9646C86.2484 13.9646 85.2031 13.6661 85.508 12.0761C85.7369 10.8791 86.6738 10.2811 87.5369 10.2811C87.7749 10.2811 88.1284 10.3324 88.4809 10.595L88.8486 8.71272ZM80.3846 11.9223L80.0098 13.8907H80.4362L80.809 11.9223C81.0977 10.4637 80.4362 10.2801 79.7292 10.2801C79.3838 10.2801 78.9239 10.3242 78.3465 10.7693C78.1166 10.3098 77.6831 10.2801 77.2364 10.2801C76.8991 10.2801 76.502 10.4196 76.035 10.6883L76.0553 10.3611H75.6815L75.0049 13.8907H75.4212L75.9479 11.1335C76.345 10.8217 76.8484 10.6883 77.1584 10.6883C77.6922 10.6883 78.0649 10.8504 77.9869 11.2802L77.4896 13.8907H77.914L78.4255 11.193C78.85 10.7847 79.3048 10.6822 79.6492 10.6822C80.1404 10.6822 80.5932 10.8504 80.3846 11.9223ZM16.4231 21.71C16.4231 21.71 19.9359 4.23224 20.1304 3.33779C20.1456 3.26701 20.1354 3.13572 19.9784 2.88954C19.7434 2.52027 17.749 0.186686 16.8708 0.00923175C16.8556 0.0061545 16.8333 0.00102575 16.7958 0C16.7938 0 16.7918 0 16.7887 0C17.124 0.0748797 17.2577 0.443124 17.1422 1.21962L16.7573 3.27932V3.28035L16.7462 3.33779L13.3002 20.8278C12.5354 24.421 14.145 26.0499 16.7279 26.0161C17.2466 26.0089 19.0091 25.8458 20.3877 25.2878L18.6161 22.9327C16.4068 23.2681 16.2579 22.788 16.4231 21.71ZM64.6051 22.1162C64.4876 15.1493 63.3481 10.3631 63.3481 10.3631C60.1492 9.93951 57.075 10.5078 55.1322 12.4403L54.9813 12.5736L55.354 10.3662L51.986 10.3621L49.0972 25.5247H52.6282L54.3168 17.0582C54.8739 14.1461 57.4629 13.2086 60.3822 13.1932C61.0275 17.1341 62.3676 24.2528 62.3676 24.8447C61.7578 26.6161 59.5648 28.3404 57.5886 29.12L59.3723 31.3725C65.9766 29.8093 70.6776 15.5093 72.7227 10.3631H69.2899C66.7951 17.7557 64.6051 22.1162 64.6051 22.1162ZM30.8421 14.7903C30.8421 13.8825 30.0541 13.2219 28.639 13.2219C26.7235 13.2219 25.5161 15.0375 25.0735 16.852C25.4847 16.8838 25.9193 16.8756 26.2718 16.8756C29.9264 16.8756 30.8421 15.5473 30.8421 14.7903ZM34.0977 14.3584C34.0977 17.5957 31.1501 19.4431 25.9618 19.4431C25.5496 19.4431 25.0725 19.4246 24.6592 19.3959C24.6004 19.6975 24.6004 19.879 24.6004 20.0308C24.6004 21.8772 25.2973 22.625 27.1915 22.625C28.4607 22.625 29.5121 22.1685 30.5149 21.6649L32.1711 23.7923C31.7224 24.1102 31.2696 24.3769 30.8188 24.5934C29.3075 25.3206 27.8043 25.5904 26.4328 25.5904C23.3687 25.5904 21.3054 23.98 21.3054 20.0462C21.3054 15.296 23.3981 10.2124 28.7909 10.2124C32.4476 10.2124 34.0977 12.0587 34.0977 14.3584ZM45.3686 10.3631H48.7801L45.9166 25.5248H42.5648L42.9092 23.6394L42.7349 23.821C41.7028 24.8796 40.1813 25.5894 38.9142 25.5894C36.1448 25.5894 34.1969 23.3973 34.8452 20.2575L36.7029 10.3631H40.0527L38.3722 19.2892C37.9762 21.4802 38.4432 22.346 40.388 22.346C41.9216 22.346 43.3316 21.0699 43.6851 19.1631L45.3686 10.3631Z" fill="#77787B"/>
</svg>
